<?xml version="1.0" standalone="no"?>
<!DOCTYPE svg PUBLIC "-//W3C//DTD SVG 20010904//EN"
 "http://www.w3.org/TR/2001/REC-SVG-20010904/DTD/svg10.dtd">
<svg version="1.0" xmlns="http://www.w3.org/2000/svg"
 width="2134.000000pt" height="2134.000000pt" viewBox="0 0 2134.000000 2134.000000"
 preserveAspectRatio="xMidYMid meet">
<metadata>
Created by potrace 1.11, written by Peter Selinger 2001-2013
</metadata>
<g transform="translate(0.000000,2134.000000) scale(0.100000,-0.100000)"
fill="#000000" stroke="none">
<path d="M19138 21335 c-2 -1 -52 -5 -113 -9 -60 -3 -119 -8 -130 -10 -11 -2
-47 -7 -80 -10 -382 -45 -910 -183 -1385 -361 -217 -82 -241 -91 -400 -158
-420 -176 -1113 -516 -1423 -699 -26 -15 -49 -28 -51 -28 -5 0 -363 -206 -521
-300 -406 -242 -1158 -728 -1606 -1040 l-115 -81 -125 40 c-409 129 -945 249
-1369 306 -25 3 -56 8 -70 10 -24 4 -61 8 -185 21 -33 3 -71 7 -85 9 -14 2
-70 7 -125 10 -55 4 -108 9 -119 11 -28 5 -433 18 -576 18 -132 0 -524 -13
-575 -19 -16 -2 -68 -6 -115 -10 -47 -3 -101 -7 -120 -10 -19 -2 -64 -7 -100
-10 -36 -4 -76 -8 -90 -10 -14 -2 -49 -7 -79 -10 -30 -4 -63 -9 -75 -11 -12
-2 -40 -6 -63 -9 -23 -3 -59 -8 -80 -11 -43 -6 -397 -71 -428 -78 -11 -3 -54
-12 -95 -21 -423 -90 -975 -264 -1389 -436 -535 -222 -1018 -482 -1500 -807
-85 -57 -159 -108 -165 -113 -6 -5 -79 -60 -161 -122 -341 -255 -618 -496
-905 -787 -588 -595 -1007 -1154 -1425 -1901 -73 -131 -276 -549 -348 -719
-113 -266 -209 -526 -307 -835 -42 -134 -137 -489 -154 -575 -2 -14 -16 -79
-31 -145 -31 -139 -41 -193 -50 -255 -3 -25 -8 -52 -11 -61 -2 -9 -7 -32 -9
-50 -3 -19 -7 -43 -9 -55 -2 -12 -7 -45 -11 -74 -4 -29 -8 -62 -11 -73 -2 -10
-6 -45 -9 -76 -4 -31 -8 -63 -10 -71 -3 -8 -7 -45 -10 -82 -3 -37 -8 -75 -9
-85 -2 -11 -7 -59 -11 -109 -3 -49 -8 -103 -10 -121 -26 -187 -26 -1159 -1
-1290 2 -11 7 -60 11 -109 3 -49 8 -102 10 -119 2 -16 7 -59 10 -95 4 -36 9
-72 10 -81 2 -9 6 -40 10 -70 8 -70 33 -237 40 -269 3 -14 7 -41 10 -60 3 -19
7 -46 10 -60 15 -78 27 -137 29 -155 2 -11 6 -29 9 -40 3 -11 9 -33 12 -50 3
-16 7 -43 11 -60 8 -48 112 -457 127 -506 73 -229 100 -332 91 -344 -5 -8 -45
-67 -89 -131 -189 -276 -253 -370 -379 -559 -264 -396 -603 -937 -748 -1195
-11 -19 -53 -91 -92 -160 -66 -113 -107 -186 -171 -305 -12 -22 -33 -60 -47
-85 -61 -110 -148 -278 -253 -488 -124 -248 -168 -342 -290 -617 -123 -276
-332 -834 -371 -990 -2 -5 -21 -73 -44 -150 -75 -258 -142 -569 -165 -770 -3
-27 -8 -61 -10 -75 -27 -161 -27 -679 -1 -816 6 -30 17 -94 21 -124 2 -14 15
-71 29 -127 154 -608 558 -1062 1136 -1276 87 -32 156 -54 203 -63 10 -2 27
-6 37 -9 19 -6 46 -12 95 -20 17 -3 37 -8 45 -10 8 -2 42 -7 75 -11 33 -3 69
-8 80 -11 11 -3 130 -6 265 -8 260 -4 434 9 655 46 33 6 71 12 85 14 14 3 38
7 53 11 16 3 38 7 50 9 12 1 36 6 52 9 17 4 48 11 70 16 377 83 822 230 1300
427 191 79 217 91 363 159 51 24 95 44 97 44 7 0 430 210 570 283 261 136 700
379 757 418 14 11 29 19 32 19 12 0 566 336 781 475 44 28 118 76 165 105 194
125 842 561 885 597 6 4 28 20 50 34 l41 27 59 -20 c33 -10 65 -20 70 -22 6
-1 30 -9 55 -16 25 -7 50 -15 55 -16 6 -2 42 -12 80 -24 71 -21 361 -96 425
-110 70 -15 286 -61 310 -65 14 -3 36 -7 50 -10 31 -7 196 -35 230 -40 14 -2
45 -6 70 -9 25 -4 56 -8 70 -11 14 -3 45 -7 70 -10 25 -3 61 -7 80 -9 31 -4
62 -8 180 -21 84 -10 207 -18 430 -31 242 -15 777 -9 1015 11 150 12 251 21
335 30 36 4 80 9 98 10 18 2 45 6 60 9 15 3 50 8 77 11 62 7 299 45 375 60 14
3 36 7 50 10 14 3 48 9 76 15 28 6 61 13 75 15 13 3 83 19 154 35 72 17 141
33 154 36 299 65 929 279 1296 440 22 10 42 18 45 19 50 14 539 258 699 349
73 42 135 76 136 76 2 0 32 18 66 40 35 21 87 53 116 69 52 30 383 252 501
335 76 55 370 282 431 333 24 21 81 69 125 107 184 156 622 579 746 721 19 22
67 76 106 120 209 237 461 563 652 847 99 148 339 538 363 592 5 11 28 53 49
91 78 137 250 493 338 700 93 219 103 243 182 465 26 74 55 154 64 178 8 23
15 43 14 45 -1 1 12 45 29 97 124 380 252 954 307 1378 56 428 71 664 71 1142
0 323 -6 511 -20 675 -19 208 -45 436 -60 530 -10 63 -14 90 -21 134 -4 25 -8
55 -10 66 -2 11 -13 72 -25 135 -56 310 -140 646 -246 988 -19 63 -33 119 -30
125 2 7 49 75 102 152 295 421 545 803 868 1325 131 211 335 561 479 820 608
1094 1015 2106 1162 2885 40 213 42 229 72 505 20 182 4 573 -32 765 -155 842
-771 1422 -1629 1535 -44 6 -98 13 -120 16 -39 6 -402 14 -407 9z m319 -1505
c145 -19 244 -69 299 -152 53 -79 77 -188 80 -373 3 -192 -8 -306 -52 -520
-200 -966 -820 -2262 -1811 -3782 -29 -46 -56 -83 -58 -83 -2 0 -36 53 -76
118 -149 246 -285 446 -460 677 -97 130 -322 410 -339 425 -4 3 -40 43 -80 90
-98 113 -174 193 -360 380 -460 461 -933 837 -1500 1192 -96 60 -176 112 -177
116 -1 4 39 34 90 66 580 374 949 596 1382 833 1107 607 2103 978 2732 1019
54 4 99 7 100 8 6 5 163 -5 230 -14z m-16007 -13462 c1 -31 423 -657 543 -804
9 -11 44 -55 78 -99 277 -355 715 -816 1059 -1115 41 -36 77 -67 80 -70 12
-13 281 -230 335 -270 33 -25 62 -47 65 -50 3 -3 50 -38 105 -78 55 -40 106
-77 112 -82 28 -23 345 -231 368 -242 14 -6 25 -15 25 -20 0 -4 4 -8 9 -8 5 0
50 -25 101 -56 l91 -57 -118 -77 c-165 -108 -354 -228 -443 -282 -41 -25 -124
-76 -185 -113 -94 -58 -172 -104 -385 -228 -266 -155 -658 -366 -915 -491
-167 -82 -365 -176 -370 -176 -2 0 -36 -15 -77 -34 -40 -18 -102 -46 -138 -60
-36 -15 -80 -34 -97 -42 -85 -39 -531 -204 -593 -219 -3 -1 -12 -5 -20 -8 -68
-29 -499 -138 -600 -153 -19 -3 -41 -7 -49 -10 -7 -2 -41 -7 -75 -10 -33 -3
-83 -10 -110 -14 -26 -4 -110 -8 -185 -8 -352 -2 -507 91 -577 348 -26 95 -28
337 -3 498 28 182 76 383 137 567 14 44 27 82 27 85 0 3 9 30 20 60 11 30 20
57 20 60 1 3 4 12 7 20 4 8 30 78 58 155 29 77 58 154 65 170 8 17 45 104 83
195 70 164 101 234 210 465 62 131 293 592 322 640 9 17 43 80 75 140 67 127
67 127 210 380 188 334 433 738 625 1033 l74 114 18 -24 c9 -12 18 -26 18 -30z"/>
</g>
</svg>
